<svg xmlns="http://www.w3.org/2000/svg" width="90" viewBox="0 0 90 30" height="30" version="1.0"><defs><clipPath id="a"><path d="M 3 10.582031 L 14 10.582031 L 14 19 L 3 19 Z M 3 10.582031"/></clipPath><clipPath id="b"><path d="M 2.585938 18 L 14.199219 18 L 14.199219 21.46875 L 2.585938 21.46875 Z M 2.585938 18"/></clipPath></defs><g fill="#F8A126"><g><g><path d="M 6.25 0 L 6.25 -3.03125 L 3.421875 -3.03125 L 3.421875 0 L 0.859375 0 L 0.859375 -7.984375 L 3.421875 -7.984375 L 3.421875 -5.078125 L 6.25 -5.078125 L 6.25 -7.984375 L 8.8125 -7.984375 L 8.8125 0 Z M 6.25 0" transform="translate(14.199 19.161)"/></g></g></g><g fill="#F8A126"><g><g><path d="M 4.828125 -8.125 C 6.203125 -8.125 7.265625 -7.769531 8.015625 -7.0625 C 8.765625 -6.363281 9.140625 -5.34375 9.140625 -4 C 9.140625 -2.644531 8.765625 -1.613281 8.015625 -0.90625 C 7.265625 -0.207031 6.203125 0.140625 4.828125 0.140625 C 3.453125 0.140625 2.390625 -0.207031 1.640625 -0.90625 C 0.890625 -1.613281 0.515625 -2.644531 0.515625 -4 C 0.515625 -5.351562 0.890625 -6.378906 1.640625 -7.078125 C 2.390625 -7.773438 3.453125 -8.125 4.828125 -8.125 Z M 4.828125 -6.21875 C 4.273438 -6.21875 3.851562 -6.050781 3.5625 -5.71875 C 3.28125 -5.382812 3.140625 -4.929688 3.140625 -4.359375 L 3.140625 -3.625 C 3.140625 -3.0625 3.28125 -2.613281 3.5625 -2.28125 C 3.851562 -1.945312 4.273438 -1.78125 4.828125 -1.78125 C 5.378906 -1.78125 5.800781 -1.945312 6.09375 -2.28125 C 6.382812 -2.613281 6.53125 -3.0625 6.53125 -3.625 L 6.53125 -4.359375 C 6.53125 -4.929688 6.382812 -5.382812 6.09375 -5.71875 C 5.800781 -6.050781 5.378906 -6.21875 4.828125 -6.21875 Z M 4.828125 -6.21875" transform="translate(23.872 19.161)"/></g></g></g><g fill="#F8A126"><g><g><path d="M 8.4375 -5.53125 C 8.4375 -5.050781 8.304688 -4.613281 8.046875 -4.21875 C 7.785156 -3.820312 7.398438 -3.53125 6.890625 -3.34375 L 8.671875 0 L 5.796875 0 L 4.375 -2.90625 L 3.421875 -2.90625 L 3.421875 0 L 0.859375 0 L 0.859375 -7.984375 L 5.75 -7.984375 C 6.320312 -7.984375 6.8125 -7.875 7.21875 -7.65625 C 7.625 -7.4375 7.925781 -7.140625 8.125 -6.765625 C 8.332031 -6.390625 8.4375 -5.976562 8.4375 -5.53125 Z M 5.828125 -5.4375 C 5.828125 -5.644531 5.753906 -5.816406 5.609375 -5.953125 C 5.472656 -6.097656 5.304688 -6.171875 5.109375 -6.171875 L 3.421875 -6.171875 L 3.421875 -4.6875 L 5.109375 -4.6875 C 5.304688 -4.6875 5.472656 -4.757812 5.609375 -4.90625 C 5.753906 -5.050781 5.828125 -5.226562 5.828125 -5.4375 Z M 5.828125 -5.4375" transform="translate(33.546 19.161)"/></g></g></g><g fill="#F8A126"><g><g><path d="M 0.96875 0 L 0.96875 -7.984375 L 3.546875 -7.984375 L 3.546875 0 Z M 0.96875 0" transform="translate(42.58 19.161)"/></g></g></g><g fill="#F8A126"><g><g><path d="M 4.21875 -1.921875 L 8.015625 -1.921875 L 8.015625 0 L 0.28125 0 L 0.28125 -0.828125 L 3.984375 -6.078125 L 0.5625 -6.078125 L 0.5625 -7.984375 L 7.921875 -7.984375 L 7.921875 -7.15625 Z M 4.21875 -1.921875" transform="translate(47.098 19.161)"/></g></g></g><g fill="#F8A126"><g><g><path d="M 4.828125 -8.125 C 6.203125 -8.125 7.265625 -7.769531 8.015625 -7.0625 C 8.765625 -6.363281 9.140625 -5.34375 9.140625 -4 C 9.140625 -2.644531 8.765625 -1.613281 8.015625 -0.90625 C 7.265625 -0.207031 6.203125 0.140625 4.828125 0.140625 C 3.453125 0.140625 2.390625 -0.207031 1.640625 -0.90625 C 0.890625 -1.613281 0.515625 -2.644531 0.515625 -4 C 0.515625 -5.351562 0.890625 -6.378906 1.640625 -7.078125 C 2.390625 -7.773438 3.453125 -8.125 4.828125 -8.125 Z M 4.828125 -6.21875 C 4.273438 -6.21875 3.851562 -6.050781 3.5625 -5.71875 C 3.28125 -5.382812 3.140625 -4.929688 3.140625 -4.359375 L 3.140625 -3.625 C 3.140625 -3.0625 3.28125 -2.613281 3.5625 -2.28125 C 3.851562 -1.945312 4.273438 -1.78125 4.828125 -1.78125 C 5.378906 -1.78125 5.800781 -1.945312 6.09375 -2.28125 C 6.382812 -2.613281 6.53125 -3.0625 6.53125 -3.625 L 6.53125 -4.359375 C 6.53125 -4.929688 6.382812 -5.382812 6.09375 -5.71875 C 5.800781 -6.050781 5.378906 -6.21875 4.828125 -6.21875 Z M 4.828125 -6.21875" transform="translate(55.483 19.161)"/></g></g></g><g fill="#F8A126"><g><g><path d="M 4.828125 -8.125 C 6.203125 -8.125 7.265625 -7.769531 8.015625 -7.0625 C 8.765625 -6.363281 9.140625 -5.34375 9.140625 -4 C 9.140625 -2.644531 8.765625 -1.613281 8.015625 -0.90625 C 7.265625 -0.207031 6.203125 0.140625 4.828125 0.140625 C 3.453125 0.140625 2.390625 -0.207031 1.640625 -0.90625 C 0.890625 -1.613281 0.515625 -2.644531 0.515625 -4 C 0.515625 -5.351562 0.890625 -6.378906 1.640625 -7.078125 C 2.390625 -7.773438 3.453125 -8.125 4.828125 -8.125 Z M 4.828125 -6.21875 C 4.273438 -6.21875 3.851562 -6.050781 3.5625 -5.71875 C 3.28125 -5.382812 3.140625 -4.929688 3.140625 -4.359375 L 3.140625 -3.625 C 3.140625 -3.0625 3.28125 -2.613281 3.5625 -2.28125 C 3.851562 -1.945312 4.273438 -1.78125 4.828125 -1.78125 C 5.378906 -1.78125 5.800781 -1.945312 6.09375 -2.28125 C 6.382812 -2.613281 6.53125 -3.0625 6.53125 -3.625 L 6.53125 -4.359375 C 6.53125 -4.929688 6.382812 -5.382812 6.09375 -5.71875 C 5.800781 -6.050781 5.378906 -6.21875 4.828125 -6.21875 Z M 4.828125 -6.21875" transform="translate(65.156 19.161)"/></g></g></g><g fill="#F8A126"><g><g><path d="M 6.578125 0 L 3.21875 -3.875 L 3.21875 0 L 0.859375 0 L 0.859375 -7.984375 L 3.09375 -7.984375 L 6.453125 -4.046875 L 6.453125 -7.984375 L 8.8125 -7.984375 L 8.8125 0 Z M 6.578125 0" transform="translate(74.83 19.161)"/></g></g></g><g clip-path="url(#a)"><path fill="#F8A126" d="M 11.757812 18.566406 C 12.5625 17.71875 13.054688 16.570312 13.054688 15.300781 C 13.054688 12.695312 10.96875 10.585938 8.394531 10.585938 C 5.816406 10.585938 3.730469 12.695312 3.730469 15.300781 C 3.730469 16.570312 4.222656 17.71875 5.027344 18.566406 L 11.757812 18.566406"/></g><g clip-path="url(#b)"><path fill="#F8A126" d="M 8.394531 21.472656 C 7.558594 21.472656 5.488281 21.332031 5.488281 21.226562 C 5.488281 21.121094 8.109375 21.210938 8.109375 21.015625 C 8.109375 20.820312 4.597656 21.070312 4.597656 20.957031 C 4.597656 20.84375 8.222656 20.835938 8.222656 20.695312 C 8.222656 20.554688 3.554688 20.59375 3.554688 20.476562 C 3.554688 20.355469 7.3125 20.457031 7.3125 20.289062 C 7.3125 20.121094 2.925781 20.253906 2.925781 20.15625 C 2.925781 20.054688 5.871094 20.117188 5.871094 19.945312 C 5.871094 19.777344 2.605469 19.964844 2.605469 19.773438 C 2.605469 19.582031 8.265625 19.648438 8.265625 19.492188 C 8.265625 19.335938 2.992188 19.445312 2.992188 19.285156 C 2.992188 19.121094 6.296875 19.121094 6.296875 18.96875 C 6.296875 18.816406 3.753906 18.863281 3.753906 18.707031 C 3.753906 18.546875 3.871094 18.566406 3.871094 18.566406 L 12.914062 18.566406 C 12.914062 18.566406 13.03125 18.546875 13.03125 18.707031 C 13.03125 18.863281 10.488281 18.816406 10.488281 18.96875 C 10.488281 19.121094 13.730469 18.996094 13.730469 19.15625 C 13.730469 19.320312 9.96875 19.335938 9.96875 19.492188 C 9.96875 19.648438 14.179688 19.582031 14.179688 19.773438 C 14.179688 19.964844 10.636719 19.777344 10.636719 19.945312 C 10.636719 20.117188 13.628906 20.054688 13.628906 20.15625 C 13.628906 20.253906 9.691406 20.121094 9.691406 20.289062 C 9.691406 20.457031 12.679688 20.355469 12.679688 20.476562 C 12.679688 20.59375 9.09375 20.554688 9.09375 20.695312 C 9.09375 20.835938 11.59375 20.84375 11.59375 20.957031 C 11.59375 21.070312 8.675781 20.820312 8.675781 21.015625 C 8.675781 21.210938 10.511719 21.121094 10.511719 21.226562 C 10.511719 21.332031 9.226562 21.472656 8.394531 21.472656"/></g></svg>