<svg xmlns="http://www.w3.org/2000/svg" width="112.5" viewBox="0 0 112.5 112.5" height="112.5" version="1.0"><defs><clipPath id="a"><path d="M 22 17.667969 L 90 17.667969 L 90 75 L 22 75 Z M 22 17.667969"/></clipPath><clipPath id="b"><path d="M 14.59375 74 L 97.84375 74 L 97.84375 94.917969 L 14.59375 94.917969 Z M 14.59375 74"/></clipPath></defs><g clip-path="url(#a)"><path fill="#F8A126" d="M 80.335938 74.320312 C 86.09375 68.304688 89.632812 60.144531 89.632812 51.152344 C 89.632812 32.664062 74.671875 17.675781 56.21875 17.675781 C 37.765625 17.675781 22.808594 32.664062 22.808594 51.152344 C 22.808594 60.144531 26.347656 68.304688 32.101562 74.320312 L 80.335938 74.320312"/></g><g clip-path="url(#b)"><path fill="#F8A126" d="M 56.21875 94.9375 C 50.246094 94.9375 35.425781 93.925781 35.425781 93.183594 C 35.425781 92.441406 54.183594 93.078125 54.183594 91.695312 C 54.183594 90.316406 29.035156 92.082031 29.035156 91.285156 C 29.035156 90.488281 54.996094 90.410156 54.996094 89.410156 C 54.996094 88.414062 21.554688 88.695312 21.554688 87.859375 C 21.554688 87.019531 48.496094 87.738281 48.496094 86.542969 C 48.496094 85.347656 17.046875 86.304688 17.046875 85.585938 C 17.046875 84.867188 38.152344 85.308594 38.152344 84.113281 C 38.152344 82.914062 14.765625 84.230469 14.765625 82.875 C 14.765625 81.519531 55.3125 82 55.3125 80.882812 C 55.3125 79.769531 17.527344 80.566406 17.527344 79.410156 C 17.527344 78.253906 41.214844 78.253906 41.214844 77.175781 C 41.214844 76.101562 23 76.421875 23 75.304688 C 23 74.1875 23.820312 74.320312 23.820312 74.320312 L 88.617188 74.320312 C 88.617188 74.320312 89.441406 74.1875 89.441406 75.304688 C 89.441406 76.421875 71.222656 76.101562 71.222656 77.175781 C 71.222656 78.253906 94.472656 77.355469 94.472656 78.511719 C 94.472656 79.667969 67.523438 79.769531 67.523438 80.882812 C 67.523438 82 97.675781 81.519531 97.675781 82.875 C 97.675781 84.230469 72.3125 82.914062 72.3125 84.113281 C 72.3125 85.308594 93.738281 84.867188 93.738281 85.585938 C 93.738281 86.304688 65.523438 85.347656 65.523438 86.542969 C 65.523438 87.738281 86.949219 87.019531 86.949219 87.859375 C 86.949219 88.695312 61.238281 88.414062 61.238281 89.410156 C 61.238281 90.410156 79.152344 90.488281 79.152344 91.285156 C 79.152344 92.082031 58.257812 90.316406 58.257812 91.695312 C 58.257812 93.078125 71.410156 92.441406 71.410156 93.183594 C 71.410156 93.925781 62.191406 94.9375 56.21875 94.9375"/></g></svg>